<svg xmlns="http://www.w3.org/2000/svg" viewBox="0 0 32 32" width="32" height="32">
  <defs>
    <linearGradient id="walletGradient" x1="0%" y1="0%" x2="100%" y2="100%">
      <stop offset="0%" style="stop-color:#667eea;stop-opacity:1" />
      <stop offset="100%" style="stop-color:#764ba2;stop-opacity:1" />
    </linearGradient>
  </defs>
  <rect width="32" height="32" rx="6" fill="url(#walletGradient)"/>
  <path d="M8 12h16c1.1 0 2 .9 2 2v8c0 1.1-.9 2-2 2H8c-1.1 0-2-.9-2-2v-8c0-1.1.9-2 2-2z" fill="white" opacity="0.9"/>
  <path d="M8 10h14c1.1 0 2 .9 2 2v1H8c-1.1 0-2-.9-2-2s.9-2 2-2z" fill="white" opacity="0.7"/>
  <circle cx="20" cy="18" r="1.5" fill="#667eea"/>
  <rect x="10" y="16" width="6" height="1" fill="#667eea" opacity="0.6"/>
  <rect x="10" y="19" width="4" height="1" fill="#667eea" opacity="0.6"/>
</svg> 